<svg width="26" height="16" viewBox="0 0 26 16" fill="none" xmlns="http://www.w3.org/2000/svg">
<path d="M0.862854 3.12195H20.735C21.8396 3.12195 22.735 4.01738 22.735 5.12195V14C22.735 15.1046 21.8396 16 20.735 16H2.86286C1.75829 16 0.862854 15.1046 0.862854 14V3.12195Z" fill="#FAC02E"/>
<path d="M0.862869 2C0.862869 0.895431 1.7583 0 2.86287 0H7.5423C8.64687 0 9.5423 0.89543 9.5423 2V3.12195H0.862869V2Z" fill="#FAC02E"/>
<path d="M2.93906 6.11304C3.19126 5.26465 3.97108 4.68292 4.85615 4.68292H22.6007C23.9191 4.68292 24.8768 5.93612 24.5305 7.20816L22.539 14.5252C22.3021 15.3958 21.5115 16 20.6092 16H2.68103C1.3434 16 0.382792 14.7123 0.763941 13.4301L2.93906 6.11304Z" fill="#FFEE58"/>
</svg>
