<svg width="40" height="35" viewBox="0 0 40 35" fill="none" xmlns="http://www.w3.org/2000/svg">
<path d="M0.752501 13.9989H33.4456C34.5502 13.9989 35.4456 14.8944 35.4456 15.9989V32.4258C35.4456 33.5304 34.5502 34.4258 33.4456 34.4258H2.7525C1.64793 34.4258 0.752501 33.5304 0.752501 32.4258V13.9989Z" fill="#FAC02E"/>
<path d="M0.752501 11.047C0.752501 9.9424 1.64793 9.04697 2.7525 9.04697H12.5196C13.6242 9.04697 14.5196 9.9424 14.5196 11.047V13.9989H0.752501V11.047Z" fill="#FAC02E"/>
<path d="M7.3362 2.75H7.0862V3V26.9978C7.0862 28.2405 8.09356 29.2478 9.3362 29.2478H27.6201C28.8627 29.2478 29.8701 28.2405 29.8701 26.9978V10C29.8701 5.99594 26.6241 2.75 22.6201 2.75H7.3362Z" fill="white" stroke="#C9C9C9" stroke-width="0.5"/>
<path d="M8.3362 1.75H8.0862V2V25.9978C8.0862 27.2405 9.09356 28.2478 10.3362 28.2478H28.6201C29.8627 28.2478 30.8701 27.2405 30.8701 25.9978V9C30.8701 4.99594 27.6241 1.75 23.6201 1.75H8.3362Z" fill="white" stroke="#C9C9C9" stroke-width="0.5"/>
<path d="M9.00215 0.75H8.75215V1V24.9978C8.75215 26.2405 9.7595 27.2478 11.0021 27.2478H29.286C30.5287 27.2478 31.536 26.2405 31.536 24.9978V8C31.536 3.99594 28.2901 0.75 24.286 0.75H9.00215Z" fill="white" stroke="#C9C9C9" stroke-width="0.5"/>
<line x1="13.3362" y1="4.5" x2="25.3362" y2="4.5" stroke="black"/>
<line x1="12.3362" y1="8.75" x2="29.3362" y2="8.75" stroke="black" stroke-width="0.5"/>
<line x1="10.3362" y1="11.75" x2="29.3362" y2="11.75" stroke="black" stroke-width="0.5"/>
<line x1="10.3362" y1="14.75" x2="29.3362" y2="14.75" stroke="black" stroke-width="0.5"/>
<path d="M4.91107 17.905C5.16327 17.0566 5.94309 16.4749 6.82816 16.4749H37.3829C38.7012 16.4749 39.6589 17.7281 39.3127 19.0002L35.5156 32.951C35.2787 33.8217 34.4881 34.4258 33.5858 34.4258H2.68103C1.3434 34.4258 0.382792 33.1381 0.763941 31.8559L4.91107 17.905Z" fill="#FFEE58"/>
</svg>
